<svg version="1.1" id="Layer_1" xmlns="http://www.w3.org/2000/svg" xmlns:xlink="http://www.w3.org/1999/xlink" x="0px" y="0px" viewBox="255.1 104 144.9 191.9" style="enable-background:new 255.1 104 144.9 191.9;" xml:space="preserve">
 <style type="text/css">
  .st0{fill:#002D74;}
 </style>
 <g>
  <path class="st0" d="M355,189.9l45-33.7h-55.9L327.6,104l-16.9,52.1h-55.7l45.4,33.7l-17.7,53.5l44.8-33l44.8,33
		C372.4,243.4,355,189.9,355,189.9z M286.7,296c22.4-32.7,27-61.8,27-61.8s-20.6,22.1-38.3,42.7c-6,6.3-11.9,12.6-17.6,19.1
		C257.8,296,286.7,296,286.7,296z M320.5,296c10-31.7,11-67.8,11-67.8s-22.2,46.3-31.3,63.5c-0.7,1.4-1.5,2.8-2.2,4.3
		C298,296,320.5,296,320.5,296z M348.1,296c-0.6-27-6.7-61.9-6.7-61.9s-8.7,36.9-11.5,61.9H348.1z">
  </path>
 </g>
</svg>