<svg version="1.1" id="Layer_1" xmlns="http://www.w3.org/2000/svg" xmlns:xlink="http://www.w3.org/1999/xlink" x="0px" y="0px" viewBox="-325.3 -101.8 800 203.8" style="enable-background:new -325.3 -101.8 800 203.8;" xml:space="preserve">
 <style type="text/css">
  .st0{fill:#002D74;}
 </style>
 <g>
  <path class="st0" d="M427.8-12.4l46.9-35.2h-58.2l-17.2-54.3l-17.6,54.3h-58L371-12.4l-18.4,55.8l46.7-34.4L446,43.4
		C446,43.4,427.8-12.4,427.8-12.4z M356.6,98.2c23.3-34.1,28.1-64.4,28.1-64.4s-21.5,23-39.9,44.5c-6.2,6.5-12.4,13.1-18.4,19.9
		C326.5,98.2,356.6,98.2,356.6,98.2z M391.8,98.2c10.4-33,11.5-70.6,11.5-70.6s-23.2,48.3-32.6,66.2c-0.8,1.5-1.5,3-2.3,4.5
		C368.4,98.2,391.8,98.2,391.8,98.2z M420.7,98.2c-0.7-28.1-7-64.5-7-64.5s-9.1,38.4-12,64.5H420.7z M-111.5-13.9
		c0,5.1-1.2,10.1-3.4,14.7c-3.9,8-12.1,11.9-24.5,11.9c-4.7,0-7.9-0.1-9.5-0.2v-28.3c0-6.1,0.1-12.8,0.4-19.9
		c3.6-0.5,8-0.8,13.3-0.8C-119.4-36.6-111.5-29-111.5-13.9z M-148.8,23.8c3.5-0.2,6.6-0.3,9.4-0.3c21.6,0,32.4,10.3,32.4,30.8
		c0,10.1-2.4,18.1-7.3,23.8c-5.2,6-12.6,9-22.2,9c-5.1,0-9-0.2-11.8-0.7c-0.3-5-0.4-10.1-0.4-15.1
		C-148.8,71.4-148.8,23.8-148.8,23.8z M-80.5-18.9c0-6-1.6-11.3-4.7-15.9c-6-8.7-18.5-13.1-37.6-13.1c-4.2,0-9.3,0.1-15.3,0.4
		c-7.6,0.4-16.1,0.5-25.6,0.5c-14.9,0-25.3-0.2-31.4-0.6l-1,1v7l1,1c7,0.4,11,0.8,12,1c2,0.6,3.1,1.8,3.5,3.8
		c0.9,4.9,1.3,15.5,1.3,31.8v52.1l-0.3,23c-0.1,7.9-0.5,12.4-1.1,13.6c-2.3,5.1-8.7,3.5-12.6,1.1c-3.1-2-9.3-10.2-18.6-24.6
		l-15.8-24.3c-3.7-5.8-7.4-11.6-10.9-17.5c21-7.8,31.5-21,31.5-39.7c0-4.6-0.6-8.6-1.9-11.9c-2.5-6.8-7.5-11.7-15-14.6
		c-5.5-2.1-14.2-3.2-26.1-3.2c-5.1,0-12.9,0.2-23.2,0.6c-5.2,0.2-12,0.3-20.3,0.3c-14.4,0-24.9-0.2-31.6-0.6l-1,1v7l1,1
		c7,0.4,11,0.8,12,1c2,0.6,3.1,1.8,3.5,3.8c0.9,4.9,1.3,15.5,1.3,31.8l0,54.4c0,16.3-0.4,26.9-1.3,31.9c-0.4,2-1.5,3.3-3.5,3.8
		c-1.1,0.3-5.1,0.6-12,1.1l-1,1v7l1,1c6.3-0.4,16.9-0.6,31.6-0.6c14.2,0,24.8,0.2,31.6,0.6l0.9-1.1v-6.9l-1-1c-7-0.4-11-0.8-12-1
		c-2-0.5-3.2-1.8-3.5-3.8c-0.9-5-1.3-15.5-1.3-31.9V-1.2c0-16.2,0.4-27.6,1-34.3c3.3-0.6,6.6-0.8,9.9-0.8c7.9,0,13.9,0.9,18,2.9
		c8.6,4,12.9,11.8,12.9,23.4c0,6.6-1.5,12.3-4.4,17.1c-2.9,4.8-6.1,8.1-9.6,10.1c-3.8,2.1-9.1,3.2-15.8,3.2c-0.8,0-1.9,0-3.5-0.1
		l-1.1,3.5c2.6,2.1,4.6,4.2,6.1,6.3l11.4,17.4l25.5,42.5c2.3,3.9,3.6,6.6,3.9,8.2c7.6-0.4,13.1-0.6,16.7-0.6h40.1
		c11.6,0.2,23.1,0.6,34.7,0.6c12.9,0,23.5-2.3,31.7-7c16.7-9.4,25-22.8,25-40c0-21.7-14.1-33.2-42.3-34.4c5-1.1,10-2.6,14.8-4.4
		c3.9-1.5,7.7-3.8,11.3-6.9C-84.2-1.1-80.5-9.2-80.5-18.9z M23.3-34.9l1.3-11.7l-1-0.8c-36.8,0.4-59.9,0.6-69.3,0.6
		c-14.5,0-25.1-0.2-31.6-0.6l-1,0.9v7l1,1c7,0.4,11,0.8,12,1c2,0.6,3.1,1.8,3.5,3.8c0.9,5,1.3,15.6,1.3,31.8v54.4
		c0,16.2-0.4,26.8-1.3,31.9c-0.3,2-1.5,3.3-3.5,3.8c-1.1,0.3-5.1,0.6-12,1l-1,1v7l1,0.9c10.4-0.5,18.5-0.7,24.4-0.6l41.3,0.6
		l1.1-1.1v-6.9l-1-1c-9.3-0.6-14.2-0.9-14.7-1c-2-0.5-3.2-1.8-3.5-3.8c-0.9-5-1.3-15.6-1.3-31.9V28.1c3.7-0.2,7.9-0.3,12.6-0.3
		c3.9,0,7.9,0.2,11.9,0.5c5.9,0.5,9.4,1.9,10.6,4.3c0.6,1.3,0.9,5.5,0.9,12.7l1,1h6.9l1-0.9c-0.3-7.6-0.4-15.1-0.4-22.7
		c0-6.4,0.1-13.4,0.4-21.1l-1-1H6.7l-1,1C5.5,9,4.9,13.5,3.8,15.1c-0.6,1-1.8,1.5-3.7,1.5c-9.5,0.4-15.9,0.5-19.4,0.4l-11.6-0.3V2.9
		c0-18.1,0.4-30.6,1.1-37.6c6-0.4,10.5-0.6,13.3-0.6c17.5,0,27.1,1.1,28.7,3.2c0.9,1.3,1.5,6.6,1.6,15.8l1,1h6l1-1.1l0.6-8.2
		C22.7-28.9,23.1-32.3,23.3-34.9z M52.7,21c0-18.1,4.7-32.4,14.2-42.9c9.5-10.6,22.5-15.8,39.1-15.8c16.2,0,28.6,4.8,37.1,14.5
		c0.5,3.2,0.9,9,1.1,17.3l1,1.1h6.1l0.9-1c0.5-12.7,2-23.7,4.3-33.2l-1.3-1.5c-16-6.1-32.5-9.2-49.2-9.2c-26.4,0-47.3,6.9-62.6,20.7
		C28.5-15.8,21,2.1,21,24.6c0,13.9,3.1,26.8,9.2,38.7c13.1,25.8,37.6,38.6,73.4,38.6c17.9,0,34.1-4,48.5-11.9l4.7-10.5l-2.6-2.3
		c-13.1,7-26.5,10.6-40.2,10.6C99,87.8,86.9,84.3,78,77.3C61.1,64.2,52.7,45.4,52.7,21z M313.2-39.5v-6.9l-1-1
		c-13.4,0.4-22.5,0.6-27.2,0.6c-6.3,0-12.4-0.2-18.4-0.6l-1,1v6.9l1,1c6.8,0.4,11,0.9,12.6,1.5c1.9,0.8,3,1.8,3.6,3.2
		c0.7,1.9,1.1,5.8,1.2,12c0.1,6.5,0.2,18.8,0.2,36.8v21.4c0,5.7-0.3,11.4-0.9,17c-0.7,6-1.7,10.5-2.9,13.4c-1.2,2.9-3.4,5.7-6.6,8.5
		c-6.7,5.9-16.1,8.8-28.1,8.8c-18.3,0-29.8-5.7-34.4-17.3c-2.3-5.8-3.5-21.7-3.5-47.6V-1.8c0-16.3,0.4-26.9,1.3-31.8
		c0.3-2,1.5-3.3,3.5-3.8c1-0.2,5-0.6,12-1l1.1-1l0-6.9l-1.1-1c-6.2,0.4-16.7,0.6-31.5,0.6c-14.5,0-25.1-0.2-31.6-0.6l-1.1,1v6.9
		l1.1,1c7,0.4,11,0.8,12,1c2,0.6,3.2,1.8,3.5,3.8c0.9,4.9,1.3,15.5,1.3,31.8v26.5c0,25.2,0.8,40.7,2.4,46.6
		c2.6,9.3,8.2,16.5,16.7,21.6c10.1,6,24.1,8.9,42,8.9c19.7,0,34.8-5.8,45.4-17.3c8-8.7,12-23.2,12-43.6V9.4
		c0-11.2,0.1-19.8,0.3-25.8c0.2-8,0.7-13.2,1.2-15.6c1-4.3,5.6-6.5,13.6-6.5C312.1-38.5,313.2-39.5,313.2-39.5z">
  </path>
 </g>
</svg>